<svg width="254" height="95" viewBox="0 0 254 95" fill="none" xmlns="http://www.w3.org/2000/svg">
<path d="M91.604 40.0483V34.4556H100.465V65.6875C100.465 69.0566 100.184 71.7295 99.6226 73.7061C99.061 75.7051 98.3198 77.3335 97.3989 78.5913C96.478 79.8491 95.3438 80.9385 93.9961 81.8594C92.6484 82.8027 91.2109 83.5215 89.6836 84.0156C87.3252 84.7344 84.7422 85.0938 81.9346 85.0938C77.5547 85.0938 73.3994 84.2739 69.4688 82.6343L70.2773 74.5483C71.8047 75.5142 73.5903 76.2778 75.6343 76.8394C77.7007 77.4009 79.5986 77.6816 81.3281 77.6816C83.5068 77.6816 85.4609 77.165 87.1904 76.1318C88.9199 75.1211 90.1216 73.6948 90.7954 71.853C91.4917 70.0337 91.8623 67.0464 91.9072 62.8911C90.5596 65.3169 88.8301 67.125 86.7188 68.3154C84.6074 69.4834 82.4062 70.0674 80.1152 70.0674C77.5996 70.0674 75.2075 69.3823 72.939 68.0122C70.6929 66.6421 68.9409 64.5645 67.6831 61.7793C66.4253 58.9717 65.7964 55.625 65.7964 51.7393C65.7964 46.0342 67.2002 41.6206 70.0078 38.4985C72.8379 35.3765 76.3081 33.8154 80.4185 33.8154C82.2827 33.8154 84.0234 34.1411 85.6406 34.7925C87.2803 35.4438 88.6279 36.2749 89.6836 37.2856C90.4248 38.0044 91.0649 38.9253 91.604 40.0483ZM75.3647 50.998C75.3647 54.8613 76.1172 57.7139 77.6221 59.5557C79.127 61.3975 80.9912 62.3184 83.2148 62.3184C85.4609 62.3184 87.3926 61.4087 89.0098 59.5894C90.627 57.7476 91.4355 55.2095 91.4355 51.9751C91.4355 48.606 90.627 45.978 89.0098 44.0913C87.3926 42.2046 85.4834 41.2612 83.2822 41.2612C81.8447 41.2612 80.4971 41.6768 79.2393 42.5078C77.9814 43.3164 77.0156 44.4956 76.3418 46.0454C75.6904 47.5952 75.3647 49.2461 75.3647 50.998ZM108.382 34.4556H116.839L117.007 43.4849C117.614 40.6099 118.86 38.3413 120.747 36.6792C122.634 34.9946 124.779 34.1523 127.182 34.1523C128.058 34.1523 128.9 34.231 129.709 34.3882V43.0806C129.013 42.6987 128.069 42.5078 126.879 42.5078C125.217 42.5078 123.813 42.8335 122.667 43.4849C121.544 44.1362 120.624 45.0122 119.905 46.1128C119.186 47.1909 118.681 48.415 118.389 49.7852C118.097 51.1553 117.951 53.0195 117.951 55.3779V70H108.686V45.2368L108.45 35.4326L108.382 34.4556ZM135.605 34.4556H144.87V51.9414L144.938 55.0747C145.005 57.5229 145.409 59.2974 146.15 60.3979C147.318 62.105 148.992 62.9585 151.17 62.9585C152.451 62.9585 153.607 62.644 154.641 62.0151C155.674 61.3638 156.494 60.4878 157.1 59.3872C157.729 58.2866 158.189 56.8491 158.481 55.0747C158.616 54.2437 158.684 52.8286 158.684 50.8296V34.4556H167.949V56.1865L168.185 67.9111L168.42 70H159.492L159.256 64.5757C158.201 66.3501 156.673 67.7876 154.674 68.8882C152.698 69.9663 150.396 70.5054 147.768 70.5054C145.903 70.5054 144.23 70.2471 142.748 69.7305C141.265 69.1914 140.052 68.4951 139.109 67.6416C138.188 66.7881 137.48 65.856 136.986 64.8452C136.515 63.8345 136.144 62.3071 135.875 60.2632C135.695 58.8931 135.605 56.2876 135.605 52.4468V34.4556ZM186.883 65.1147V84.6221H177.686V44.8325L177.551 37.8921L177.45 35.4326L177.382 34.4556H186.311L186.479 39.981C187.692 38.0493 189.253 36.5444 191.162 35.4663C193.094 34.3657 195.295 33.8154 197.766 33.8154C201.831 33.8154 205.133 35.1069 207.671 37.6899C210.793 40.9019 212.354 45.5737 212.354 51.7056C212.354 55.3892 211.792 58.6685 210.669 61.5435C209.546 64.4185 207.839 66.6309 205.548 68.1807C203.257 69.708 200.54 70.4717 197.395 70.4717C194.969 70.4717 192.869 69.9888 191.095 69.0229C189.32 68.0571 187.917 66.7544 186.883 65.1147ZM186.883 52.4468C186.883 55.9731 187.669 58.6685 189.242 60.5327C190.836 62.3745 192.712 63.2954 194.868 63.2954C196.957 63.2954 198.799 62.3408 200.394 60.4316C201.988 58.5 202.786 55.7036 202.786 52.0425C202.786 48.4487 201.988 45.6636 200.394 43.687C199.158 42.1597 197.496 41.396 195.407 41.396C193.026 41.396 191.005 42.3506 189.343 44.2598C187.703 46.1465 186.883 48.8755 186.883 52.4468ZM219.631 34.4556H228.088L228.256 43.4849C228.863 40.6099 230.109 38.3413 231.996 36.6792C233.883 34.9946 236.028 34.1523 238.431 34.1523C239.307 34.1523 240.149 34.231 240.958 34.3882V43.0806C240.262 42.6987 239.318 42.5078 238.128 42.5078C236.466 42.5078 235.062 42.8335 233.917 43.4849C232.793 44.1362 231.873 45.0122 231.154 46.1128C230.435 47.1909 229.93 48.415 229.638 49.7852C229.346 51.1553 229.2 53.0195 229.2 55.3779V70H219.935V45.2368L219.699 35.4326L219.631 34.4556Z" fill="white"/>
<path d="M48 70.8806L48 52.6221C48 52.29 47.8351 51.9795 47.5598 51.7935L45.884 50.6612C42.1648 48.1483 38.98 44.9239 36.5133 41.1739L35.3796 39.4504C35.1947 39.1693 34.8807 39 34.5442 39L30.4228 39C30.1129 39 29.8283 39.1792 29.6912 39.4571C27.0613 44.7878 22.745 49.1797 17.4428 51.8665C17.1712 52.0042 17 52.2828 17 52.5873L17 70.8806C17 71.1435 17.1035 71.3958 17.2882 71.583L31.7882 86.2786C32.1798 86.6754 32.8202 86.6754 33.2118 86.2786L47.7118 71.583C47.8965 71.3958 48 71.1435 48 70.8806Z" stroke="white" stroke-width="3"/>
<path d="M33 70.8806L33 52.6221C33 52.29 32.8351 51.9795 32.5598 51.7935L30.884 50.6612C27.1648 48.1483 23.98 44.9239 21.5133 41.1739L20.3796 39.4504C20.1947 39.1693 19.8807 39 19.5442 39L15.4228 39C15.1129 39 14.8283 39.1792 14.6912 39.4571C12.0613 44.7878 7.74496 49.1797 2.4428 51.8665C2.17118 52.0042 2 52.2828 2 52.5873L2 70.8806C2 71.1435 2.10353 71.3958 2.28817 71.583L16.7882 86.2786C17.1798 86.6754 17.8202 86.6754 18.2118 86.2786L32.7118 71.583C32.8965 71.3958 33 71.1435 33 70.8806Z" stroke="white" stroke-width="3"/>
</svg>
