<svg width="21" height="37" viewBox="0 0 21 37" fill="none" xmlns="http://www.w3.org/2000/svg">
<g filter="url(#filter0_i_92_3454)">
<rect x="5.97583" y="20.5117" width="8.29718" height="12.433" rx="3.2" stroke="url(#paint0_linear_92_3454)" stroke-width="3"/>
</g>
<g filter="url(#filter1_f_92_3454)">
<rect x="5.97583" y="19.9974" width="8.29718" height="12.9473" rx="3.2" stroke="url(#paint1_linear_92_3454)"/>
<rect x="5.97583" y="19.9974" width="8.29718" height="12.9473" rx="3.2" stroke="url(#paint2_linear_92_3454)"/>
</g>
<g filter="url(#filter2_i_92_3454)">
<rect x="5.97583" y="4.19917" width="8.29718" height="12.433" rx="3.2" stroke="url(#paint3_linear_92_3454)" stroke-width="3"/>
</g>
<g filter="url(#filter3_f_92_3454)">
<rect x="5.97583" y="3.84349" width="8.29718" height="12.7887" rx="3.2" stroke="url(#paint4_linear_92_3454)"/>
<rect x="5.97583" y="3.84349" width="8.29718" height="12.7887" rx="3.2" stroke="url(#paint5_linear_92_3454)"/>
</g>
<path d="M8.31543 14.5342C8.31543 13.544 9.12537 12.7413 10.1245 12.7413C11.1236 12.7413 11.9335 13.544 11.9335 14.5342V22.7817C11.9335 23.7719 11.1236 24.5746 10.1245 24.5746C9.12537 24.5746 8.31543 23.7719 8.31543 22.7817V14.5342Z" fill="url(#paint6_linear_92_3454)"/>
<path d="M8.31543 14.5342C8.31543 13.544 9.12537 12.7413 10.1245 12.7413C11.1236 12.7413 11.9335 13.544 11.9335 14.5342V22.7817C11.9335 23.7719 11.1236 24.5746 10.1245 24.5746C9.12537 24.5746 8.31543 23.7719 8.31543 22.7817V14.5342Z" fill="url(#paint7_radial_92_3454)"/>
<path d="M8.31543 14.5342C8.31543 13.544 9.12537 12.7413 10.1245 12.7413C11.1236 12.7413 11.9335 13.544 11.9335 14.5342V22.7817C11.9335 23.7719 11.1236 24.5746 10.1245 24.5746C9.12537 24.5746 8.31543 23.7719 8.31543 22.7817V14.5342Z" fill="url(#paint8_radial_92_3454)"/>
<path d="M10.1245 28.7137C9.12535 28.7137 8.31543 29.5165 8.31543 30.5066V34.9039C8.31543 34.9997 8.39378 35.0774 8.49043 35.0774H11.7585C11.8551 35.0774 11.9335 34.9997 11.9335 34.9039V30.5066C11.9335 29.5165 11.1236 28.7137 10.1245 28.7137Z" fill="url(#paint9_radial_92_3454)"/>
<path d="M10.1245 28.7137C9.12535 28.7137 8.31543 29.5165 8.31543 30.5066V34.9039C8.31543 34.9997 8.39378 35.0774 8.49043 35.0774H11.7585C11.8551 35.0774 11.9335 34.9997 11.9335 34.9039V30.5066C11.9335 29.5165 11.1236 28.7137 10.1245 28.7137Z" fill="url(#paint10_radial_92_3454)"/>
<path d="M10.1245 28.7137C9.12535 28.7137 8.31543 29.5165 8.31543 30.5066V34.9039C8.31543 34.9997 8.39378 35.0774 8.49043 35.0774H11.7585C11.8551 35.0774 11.9335 34.9997 11.9335 34.9039V30.5066C11.9335 29.5165 11.1236 28.7137 10.1245 28.7137Z" fill="url(#paint11_radial_92_3454)"/>
<path d="M10.1245 28.7137C9.12535 28.7137 8.31543 29.5165 8.31543 30.5066V34.9039C8.31543 34.9997 8.39378 35.0774 8.49043 35.0774H11.7585C11.8551 35.0774 11.9335 34.9997 11.9335 34.9039V30.5066C11.9335 29.5165 11.1236 28.7137 10.1245 28.7137Z" fill="url(#paint12_linear_92_3454)"/>
<path d="M10.1245 8.19202C9.12535 8.19202 8.31543 7.3893 8.31543 6.3991V2.00181C8.31543 1.90602 8.39378 1.82837 8.49043 1.82837H11.7585C11.8551 1.82837 11.9335 1.90602 11.9335 2.00181V6.3991C11.9335 7.3893 11.1236 8.19202 10.1245 8.19202Z" fill="url(#paint13_linear_92_3454)"/>
<path d="M10.1245 8.19202C9.12535 8.19202 8.31543 7.3893 8.31543 6.3991V2.00181C8.31543 1.90602 8.39378 1.82837 8.49043 1.82837H11.7585C11.8551 1.82837 11.9335 1.90602 11.9335 2.00181V6.3991C11.9335 7.3893 11.1236 8.19202 10.1245 8.19202Z" fill="url(#paint14_radial_92_3454)"/>
<path d="M10.1245 8.19202C9.12535 8.19202 8.31543 7.3893 8.31543 6.3991V2.00181C8.31543 1.90602 8.39378 1.82837 8.49043 1.82837H11.7585C11.8551 1.82837 11.9335 1.90602 11.9335 2.00181V6.3991C11.9335 7.3893 11.1236 8.19202 10.1245 8.19202Z" fill="url(#paint15_radial_92_3454)"/>
<path d="M10.1245 8.19202C9.12535 8.19202 8.31543 7.3893 8.31543 6.3991V2.00181C8.31543 1.90602 8.39378 1.82837 8.49043 1.82837H11.7585C11.8551 1.82837 11.9335 1.90602 11.9335 2.00181V6.3991C11.9335 7.3893 11.1236 8.19202 10.1245 8.19202Z" fill="url(#paint16_radial_92_3454)"/>
<defs>
<filter id="filter0_i_92_3454" x="4.47583" y="18.0117" width="11.2971" height="16.433" filterUnits="userSpaceOnUse" color-interpolation-filters="sRGB">
<feFlood flood-opacity="0" result="BackgroundImageFix"/>
<feBlend mode="normal" in="SourceGraphic" in2="BackgroundImageFix" result="shape"/>
<feColorMatrix in="SourceAlpha" type="matrix" values="0 0 0 0 0 0 0 0 0 0 0 0 0 0 0 0 0 0 127 0" result="hardAlpha"/>
<feOffset dy="-1"/>
<feGaussianBlur stdDeviation="0.5"/>
<feComposite in2="hardAlpha" operator="arithmetic" k2="-1" k3="1"/>
<feColorMatrix type="matrix" values="0 0 0 0 0.482353 0 0 0 0 0.411765 0 0 0 0 0.552941 0 0 0 1 0"/>
<feBlend mode="normal" in2="shape" result="effect1_innerShadow_92_3454"/>
</filter>
<filter id="filter1_f_92_3454" x="4.87583" y="18.8974" width="10.4971" height="15.1473" filterUnits="userSpaceOnUse" color-interpolation-filters="sRGB">
<feFlood flood-opacity="0" result="BackgroundImageFix"/>
<feBlend mode="normal" in="SourceGraphic" in2="BackgroundImageFix" result="shape"/>
<feGaussianBlur stdDeviation="0.3" result="effect1_foregroundBlur_92_3454"/>
</filter>
<filter id="filter2_i_92_3454" x="4.47583" y="1.69917" width="11.2971" height="16.433" filterUnits="userSpaceOnUse" color-interpolation-filters="sRGB">
<feFlood flood-opacity="0" result="BackgroundImageFix"/>
<feBlend mode="normal" in="SourceGraphic" in2="BackgroundImageFix" result="shape"/>
<feColorMatrix in="SourceAlpha" type="matrix" values="0 0 0 0 0 0 0 0 0 0 0 0 0 0 0 0 0 0 127 0" result="hardAlpha"/>
<feOffset dy="-1"/>
<feGaussianBlur stdDeviation="0.5"/>
<feComposite in2="hardAlpha" operator="arithmetic" k2="-1" k3="1"/>
<feColorMatrix type="matrix" values="0 0 0 0 0.482353 0 0 0 0 0.411765 0 0 0 0 0.552941 0 0 0 1 0"/>
<feBlend mode="normal" in2="shape" result="effect1_innerShadow_92_3454"/>
</filter>
<filter id="filter3_f_92_3454" x="4.87583" y="2.74349" width="10.4971" height="14.9887" filterUnits="userSpaceOnUse" color-interpolation-filters="sRGB">
<feFlood flood-opacity="0" result="BackgroundImageFix"/>
<feBlend mode="normal" in="SourceGraphic" in2="BackgroundImageFix" result="shape"/>
<feGaussianBlur stdDeviation="0.3" result="effect1_foregroundBlur_92_3454"/>
</filter>
<linearGradient id="paint0_linear_92_3454" x1="5.6502" y1="22.275" x2="11.319" y2="28.4911" gradientUnits="userSpaceOnUse">
<stop stop-color="#BEB2CA"/>
<stop offset="1" stop-color="#827A8C"/>
</linearGradient>
<linearGradient id="paint1_linear_92_3454" x1="16.6996" y1="21.0867" x2="9.9856" y2="28.2393" gradientUnits="userSpaceOnUse">
<stop stop-color="#B9B2C1"/>
<stop offset="1" stop-color="#B9B2C1" stop-opacity="0"/>
</linearGradient>
<linearGradient id="paint2_linear_92_3454" x1="5.6502" y1="27.9961" x2="8.51939" y2="27.9961" gradientUnits="userSpaceOnUse">
<stop stop-color="#B4A9C0"/>
<stop offset="1" stop-color="#B4A9C0" stop-opacity="0"/>
</linearGradient>
<linearGradient id="paint3_linear_92_3454" x1="5.6502" y1="5.96251" x2="11.319" y2="12.1786" gradientUnits="userSpaceOnUse">
<stop stop-color="#BEB2CA"/>
<stop offset="1" stop-color="#827A8C"/>
</linearGradient>
<linearGradient id="paint4_linear_92_3454" x1="16.6996" y1="4.91946" x2="10.0735" y2="12.0659" gradientUnits="userSpaceOnUse">
<stop stop-color="#B9B2C1"/>
<stop offset="1" stop-color="#B9B2C1" stop-opacity="0"/>
</linearGradient>
<linearGradient id="paint5_linear_92_3454" x1="5.6502" y1="11.7442" x2="8.51939" y2="11.7442" gradientUnits="userSpaceOnUse">
<stop stop-color="#B4A9C0"/>
<stop offset="1" stop-color="#B4A9C0" stop-opacity="0"/>
</linearGradient>
<linearGradient id="paint6_linear_92_3454" x1="10.1245" y1="12.7413" x2="10.1245" y2="24.5746" gradientUnits="userSpaceOnUse">
<stop stop-color="#C8C4CC"/>
<stop offset="1" stop-color="#A69EAF"/>
</linearGradient>
<radialGradient id="paint7_radial_92_3454" cx="0" cy="0" r="1" gradientUnits="userSpaceOnUse" gradientTransform="translate(10.1245 24.1861) rotate(-90) scale(8.53071 5.72051)">
<stop stop-color="#7E6893"/>
<stop offset="1" stop-color="#8B7E99" stop-opacity="0"/>
</radialGradient>
<radialGradient id="paint8_radial_92_3454" cx="0" cy="0" r="1" gradientUnits="userSpaceOnUse" gradientTransform="translate(11.297 14.6571) rotate(90) scale(5.68714 1.52178)">
<stop stop-color="#D3CDDA"/>
<stop offset="1" stop-color="#C7C2CC" stop-opacity="0"/>
</radialGradient>
<radialGradient id="paint9_radial_92_3454" cx="0" cy="0" r="1" gradientUnits="userSpaceOnUse" gradientTransform="translate(9.34354 34.7295) rotate(-90) scale(5.53588 3.14744)">
<stop stop-color="#A694BA"/>
<stop offset="1" stop-color="#BCB4C4"/>
</radialGradient>
<radialGradient id="paint10_radial_92_3454" cx="0" cy="0" r="1" gradientUnits="userSpaceOnUse" gradientTransform="translate(11.1444 31.7347) rotate(90) scale(3.63009 1.54431)">
<stop stop-color="#D8D0E2"/>
<stop offset="1" stop-color="#C3BACE" stop-opacity="0"/>
</radialGradient>
<radialGradient id="paint11_radial_92_3454" cx="0" cy="0" r="1" gradientUnits="userSpaceOnUse" gradientTransform="translate(8.31543 35.0774) rotate(-90) scale(2.88894 0.722878)">
<stop stop-color="#B0A2BE"/>
<stop offset="1" stop-color="#B2A3C1" stop-opacity="0"/>
</radialGradient>
<linearGradient id="paint12_linear_92_3454" x1="11.1825" y1="35.0774" x2="11.1825" y2="34.848" gradientUnits="userSpaceOnUse">
<stop stop-color="#A385C0"/>
<stop offset="1" stop-color="#A385C0" stop-opacity="0"/>
</linearGradient>
<linearGradient id="paint13_linear_92_3454" x1="8.73307" y1="5.74929" x2="12.3958" y2="5.81089" gradientUnits="userSpaceOnUse">
<stop stop-color="#A397AE"/>
<stop offset="1" stop-color="#C2B9CD"/>
</linearGradient>
<radialGradient id="paint14_radial_92_3454" cx="0" cy="0" r="1" gradientUnits="userSpaceOnUse" gradientTransform="translate(10.1245 8.19202) rotate(-90) scale(5.01404 2.0629)">
<stop offset="0.0889859" stop-color="#B4A0CA"/>
<stop offset="1" stop-color="#B4A0CA" stop-opacity="0"/>
</radialGradient>
<radialGradient id="paint15_radial_92_3454" cx="0" cy="0" r="1" gradientUnits="userSpaceOnUse" gradientTransform="translate(8.31543 1.82837) rotate(90) scale(3.58816 0.570261)">
<stop stop-color="#B6B0BC"/>
<stop offset="1" stop-color="#B6B0BC" stop-opacity="0"/>
</radialGradient>
<radialGradient id="paint16_radial_92_3454" cx="0" cy="0" r="1" gradientUnits="userSpaceOnUse" gradientTransform="translate(11.2818 1.98307) rotate(-180) scale(1.64826 0.190315)">
<stop stop-color="#C7C0CD"/>
<stop offset="1" stop-color="#C7C0CD" stop-opacity="0"/>
</radialGradient>
</defs>
</svg>
