<svg width="263" height="90" viewBox="0 0 263 90" fill="none" xmlns="http://www.w3.org/2000/svg">
<path d="M110.531 37.2188V32.0312H118.75V61C118.75 64.125 118.49 66.6042 117.969 68.4375C117.448 70.2917 116.76 71.8021 115.906 72.9688C115.052 74.1354 114 75.1458 112.75 76C111.5 76.875 110.167 77.5417 108.75 78C106.562 78.6667 104.167 79 101.562 79C97.5 79 93.6458 78.2396 90 76.7188L90.75 69.2188C92.1667 70.1146 93.8229 70.8229 95.7188 71.3438C97.6354 71.8646 99.3958 72.125 101 72.125C103.021 72.125 104.833 71.6458 106.438 70.6875C108.042 69.75 109.156 68.4271 109.781 66.7188C110.427 65.0312 110.771 62.2604 110.812 58.4062C109.562 60.6562 107.958 62.3333 106 63.4375C104.042 64.5208 102 65.0625 99.875 65.0625C97.5417 65.0625 95.3229 64.4271 93.2188 63.1562C91.1354 61.8854 89.5104 59.9583 88.3438 57.375C87.1771 54.7708 86.5938 51.6667 86.5938 48.0625C86.5938 42.7708 87.8958 38.6771 90.5 35.7812C93.125 32.8854 96.3438 31.4375 100.156 31.4375C101.885 31.4375 103.5 31.7396 105 32.3438C106.521 32.9479 107.771 33.7188 108.75 34.6562C109.438 35.3229 110.031 36.1771 110.531 37.2188ZM95.4688 47.375C95.4688 50.9583 96.1667 53.6042 97.5625 55.3125C98.9583 57.0208 100.688 57.875 102.75 57.875C104.833 57.875 106.625 57.0312 108.125 55.3438C109.625 53.6354 110.375 51.2812 110.375 48.2812C110.375 45.1562 109.625 42.7188 108.125 40.9688C106.625 39.2188 104.854 38.3438 102.812 38.3438C101.479 38.3438 100.229 38.7292 99.0625 39.5C97.8958 40.25 97 41.3438 96.375 42.7812C95.7708 44.2188 95.4688 45.75 95.4688 47.375ZM126.094 32.0312H133.938L134.094 40.4062C134.656 37.7396 135.812 35.6354 137.562 34.0938C139.312 32.5312 141.302 31.75 143.531 31.75C144.344 31.75 145.125 31.8229 145.875 31.9688V40.0312C145.229 39.6771 144.354 39.5 143.25 39.5C141.708 39.5 140.406 39.8021 139.344 40.4062C138.302 41.0104 137.448 41.8229 136.781 42.8438C136.115 43.8438 135.646 44.9792 135.375 46.25C135.104 47.5208 134.969 49.25 134.969 51.4375V65H126.375V42.0312L126.156 32.9375L126.094 32.0312ZM151.344 32.0312H159.938V48.25L160 51.1562C160.062 53.4271 160.438 55.0729 161.125 56.0938C162.208 57.6771 163.76 58.4688 165.781 58.4688C166.969 58.4688 168.042 58.1771 169 57.5938C169.958 56.9896 170.719 56.1771 171.281 55.1562C171.865 54.1354 172.292 52.8021 172.562 51.1562C172.688 50.3854 172.75 49.0729 172.75 47.2188V32.0312H181.344V52.1875L181.562 63.0625L181.781 65H173.5L173.281 59.9688C172.302 61.6146 170.885 62.9479 169.031 63.9688C167.198 64.9688 165.062 65.4688 162.625 65.4688C160.896 65.4688 159.344 65.2292 157.969 64.75C156.594 64.25 155.469 63.6042 154.594 62.8125C153.74 62.0208 153.083 61.1562 152.625 60.2188C152.188 59.2812 151.844 57.8646 151.594 55.9688C151.427 54.6979 151.344 52.2812 151.344 48.7188V32.0312ZM198.906 60.4688V78.5625H190.375V41.6562L190.25 35.2188L190.156 32.9375L190.094 32.0312H198.375L198.531 37.1562C199.656 35.3646 201.104 33.9688 202.875 32.9688C204.667 31.9479 206.708 31.4375 209 31.4375C212.771 31.4375 215.833 32.6354 218.188 35.0312C221.083 38.0104 222.531 42.3438 222.531 48.0312C222.531 51.4479 222.01 54.4896 220.969 57.1562C219.927 59.8229 218.344 61.875 216.219 63.3125C214.094 64.7292 211.573 65.4375 208.656 65.4375C206.406 65.4375 204.458 64.9896 202.812 64.0938C201.167 63.1979 199.865 61.9896 198.906 60.4688ZM198.906 48.7188C198.906 51.9896 199.635 54.4896 201.094 56.2188C202.573 57.9271 204.312 58.7812 206.312 58.7812C208.25 58.7812 209.958 57.8958 211.438 56.125C212.917 54.3333 213.656 51.7396 213.656 48.3438C213.656 45.0104 212.917 42.4271 211.438 40.5938C210.292 39.1771 208.75 38.4688 206.812 38.4688C204.604 38.4688 202.729 39.3542 201.188 41.125C199.667 42.875 198.906 45.4062 198.906 48.7188ZM229.281 32.0312H237.125L237.281 40.4062C237.844 37.7396 239 35.6354 240.75 34.0938C242.5 32.5312 244.49 31.75 246.719 31.75C247.531 31.75 248.312 31.8229 249.062 31.9688V40.0312C248.417 39.6771 247.542 39.5 246.438 39.5C244.896 39.5 243.594 39.8021 242.531 40.4062C241.49 41.0104 240.635 41.8229 239.969 42.8438C239.302 43.8438 238.833 44.9792 238.562 46.25C238.292 47.5208 238.156 49.25 238.156 51.4375V65H229.562V42.0312L229.344 32.9375L229.281 32.0312Z" fill="#504CA4"/>
<path d="M66 65.9871L66 40.5338C66 40.2002 65.8337 39.8886 65.5565 39.7029L60.8998 36.584C57.1702 34.0861 53.9722 30.8743 51.4902 27.1341L48.38 22.4471C48.1947 22.1679 47.8819 22 47.5468 22L41.536 22C41.1565 22 40.8098 22.2147 40.6407 22.5544L39.994 23.8539C36.7163 30.4398 31.3909 35.785 24.8171 39.0872L23.5511 39.7232C23.2133 39.8929 23 40.2386 23 40.6167L23 65.9871C23 66.2516 23.1047 66.5052 23.2913 66.6926L43.7913 87.288C44.1822 87.6807 44.8178 87.6807 45.2087 87.288L65.7087 66.6926C65.8953 66.5052 66 66.2516 66 65.9871Z" stroke="#504CA4" stroke-width="3"/>
<path d="M46 65.9804L46 40.5406C46 40.2033 45.8299 39.8887 45.5477 39.7039L40.6887 36.5235C36.9334 34.0655 33.7019 30.8883 31.1807 27.1752L27.9642 22.4382C27.7781 22.1641 27.4683 22 27.1369 22L20.9463 22C20.5702 22 20.2259 22.211 20.0552 22.5462L19.3646 23.9022C16.0266 30.4568 10.653 35.7522 4.05003 38.9936L2.55933 39.7254C2.21696 39.8935 2 40.2417 2 40.6231L2 65.9804C2 66.2488 2.10789 66.5059 2.29941 66.694L23.2994 87.3121C23.6884 87.6941 24.3116 87.6941 24.7006 87.3121L45.7006 66.694C45.8921 66.5059 46 66.2488 46 65.9804Z" stroke="#504CA4" stroke-width="3"/>
</svg>
