<svg width="264" height="91" viewBox="0 0 264 91" fill="none" xmlns="http://www.w3.org/2000/svg">
<path d="M111.531 37.2188V32.0312H119.75V61C119.75 64.125 119.49 66.6042 118.969 68.4375C118.448 70.2917 117.76 71.8021 116.906 72.9688C116.052 74.1354 115 75.1458 113.75 76C112.5 76.875 111.167 77.5417 109.75 78C107.562 78.6667 105.167 79 102.562 79C98.5 79 94.6458 78.2396 91 76.7188L91.75 69.2188C93.1667 70.1146 94.8229 70.8229 96.7188 71.3438C98.6354 71.8646 100.396 72.125 102 72.125C104.021 72.125 105.833 71.6458 107.438 70.6875C109.042 69.75 110.156 68.4271 110.781 66.7188C111.427 65.0312 111.771 62.2604 111.812 58.4062C110.562 60.6562 108.958 62.3333 107 63.4375C105.042 64.5208 103 65.0625 100.875 65.0625C98.5417 65.0625 96.3229 64.4271 94.2188 63.1562C92.1354 61.8854 90.5104 59.9583 89.3438 57.375C88.1771 54.7708 87.5938 51.6667 87.5938 48.0625C87.5938 42.7708 88.8958 38.6771 91.5 35.7812C94.125 32.8854 97.3438 31.4375 101.156 31.4375C102.885 31.4375 104.5 31.7396 106 32.3438C107.521 32.9479 108.771 33.7188 109.75 34.6562C110.438 35.3229 111.031 36.1771 111.531 37.2188ZM96.4688 47.375C96.4688 50.9583 97.1667 53.6042 98.5625 55.3125C99.9583 57.0208 101.688 57.875 103.75 57.875C105.833 57.875 107.625 57.0312 109.125 55.3438C110.625 53.6354 111.375 51.2812 111.375 48.2812C111.375 45.1562 110.625 42.7188 109.125 40.9688C107.625 39.2188 105.854 38.3438 103.812 38.3438C102.479 38.3438 101.229 38.7292 100.062 39.5C98.8958 40.25 98 41.3438 97.375 42.7812C96.7708 44.2188 96.4688 45.75 96.4688 47.375ZM127.094 32.0312H134.938L135.094 40.4062C135.656 37.7396 136.812 35.6354 138.562 34.0938C140.312 32.5312 142.302 31.75 144.531 31.75C145.344 31.75 146.125 31.8229 146.875 31.9688V40.0312C146.229 39.6771 145.354 39.5 144.25 39.5C142.708 39.5 141.406 39.8021 140.344 40.4062C139.302 41.0104 138.448 41.8229 137.781 42.8438C137.115 43.8438 136.646 44.9792 136.375 46.25C136.104 47.5208 135.969 49.25 135.969 51.4375V65H127.375V42.0312L127.156 32.9375L127.094 32.0312ZM152.344 32.0312H160.938V48.25L161 51.1562C161.062 53.4271 161.438 55.0729 162.125 56.0938C163.208 57.6771 164.76 58.4688 166.781 58.4688C167.969 58.4688 169.042 58.1771 170 57.5938C170.958 56.9896 171.719 56.1771 172.281 55.1562C172.865 54.1354 173.292 52.8021 173.562 51.1562C173.688 50.3854 173.75 49.0729 173.75 47.2188V32.0312H182.344V52.1875L182.562 63.0625L182.781 65H174.5L174.281 59.9688C173.302 61.6146 171.885 62.9479 170.031 63.9688C168.198 64.9688 166.062 65.4688 163.625 65.4688C161.896 65.4688 160.344 65.2292 158.969 64.75C157.594 64.25 156.469 63.6042 155.594 62.8125C154.74 62.0208 154.083 61.1562 153.625 60.2188C153.188 59.2812 152.844 57.8646 152.594 55.9688C152.427 54.6979 152.344 52.2812 152.344 48.7188V32.0312ZM199.906 60.4688V78.5625H191.375V41.6562L191.25 35.2188L191.156 32.9375L191.094 32.0312H199.375L199.531 37.1562C200.656 35.3646 202.104 33.9688 203.875 32.9688C205.667 31.9479 207.708 31.4375 210 31.4375C213.771 31.4375 216.833 32.6354 219.188 35.0312C222.083 38.0104 223.531 42.3438 223.531 48.0312C223.531 51.4479 223.01 54.4896 221.969 57.1562C220.927 59.8229 219.344 61.875 217.219 63.3125C215.094 64.7292 212.573 65.4375 209.656 65.4375C207.406 65.4375 205.458 64.9896 203.812 64.0938C202.167 63.1979 200.865 61.9896 199.906 60.4688ZM199.906 48.7188C199.906 51.9896 200.635 54.4896 202.094 56.2188C203.573 57.9271 205.312 58.7812 207.312 58.7812C209.25 58.7812 210.958 57.8958 212.438 56.125C213.917 54.3333 214.656 51.7396 214.656 48.3438C214.656 45.0104 213.917 42.4271 212.438 40.5938C211.292 39.1771 209.75 38.4688 207.812 38.4688C205.604 38.4688 203.729 39.3542 202.188 41.125C200.667 42.875 199.906 45.4062 199.906 48.7188ZM230.281 32.0312H238.125L238.281 40.4062C238.844 37.7396 240 35.6354 241.75 34.0938C243.5 32.5312 245.49 31.75 247.719 31.75C248.531 31.75 249.312 31.8229 250.062 31.9688V40.0312C249.417 39.6771 248.542 39.5 247.438 39.5C245.896 39.5 244.594 39.8021 243.531 40.4062C242.49 41.0104 241.635 41.8229 240.969 42.8438C240.302 43.8438 239.833 44.9792 239.562 46.25C239.292 47.5208 239.156 49.25 239.156 51.4375V65H230.562V42.0312L230.344 32.9375L230.281 32.0312Z" fill="#504CA4"/>
<path d="M67 65.9871L67 40.5338C67 40.2002 66.8337 39.8886 66.5565 39.7029L61.8998 36.584C58.1702 34.0861 54.9722 30.8743 52.4902 27.1341L49.38 22.4471C49.1947 22.1679 48.8819 22 48.5468 22L42.536 22C42.1565 22 41.8098 22.2147 41.6407 22.5544L40.994 23.8539C37.7163 30.4398 32.3909 35.785 25.8171 39.0872L24.5511 39.7232C24.2133 39.8929 24 40.2386 24 40.6167L24 65.9871C24 66.2516 24.1047 66.5052 24.2913 66.6926L44.7913 87.288C45.1822 87.6807 45.8178 87.6807 46.2087 87.288L66.7087 66.6926C66.8953 66.5052 67 66.2516 67 65.9871Z" stroke="#504CA4" stroke-width="5"/>
<path d="M47 65.9804L47 40.5406C47 40.2033 46.8299 39.8887 46.5477 39.7039L41.6887 36.5235C37.9334 34.0655 34.7019 30.8883 32.1807 27.1752L28.9642 22.4382C28.7781 22.1641 28.4683 22 28.1369 22L21.9463 22C21.5702 22 21.2259 22.211 21.0552 22.5462L20.3646 23.9022C17.0266 30.4568 11.653 35.7522 5.05003 38.9936L3.55933 39.7254C3.21696 39.8935 3 40.2417 3 40.6231L3 65.9804C3 66.2488 3.10789 66.5059 3.29941 66.694L24.2994 87.3121C24.6884 87.6941 25.3116 87.6941 25.7006 87.3121L46.7006 66.694C46.8921 66.5059 47 66.2488 47 65.9804Z" stroke="#504CA4" stroke-width="5"/>
</svg>
