<svg width="1000" height="784" viewBox="0 0 1000 784" fill="none" xmlns="http://www.w3.org/2000/svg">
<path d="M320 26C272.6 29.2 269.9 93.2 182 142C110.5 181.7 74.8 160.1 52.5 189.7C-5.30001 266.5 134.5 545 296 558C374.4 564.3 390.6 502.6 548 464C675.3 432.8 710.2 462 756 424C863.3 335 815.3 55.7 734.5 35.7C665.3 18.5 605 200.2 504.5 185.7C415.7 172.9 393.5 21 320 26Z" fill="#333379"/>
<path d="M540.9 119.3C544.9 145.7 540.9 186.3 569.8 207.9C597.3 228.4 620 223.3 620 223.3C622.7 213.5 657.5 117.7 540.9 119.3Z" fill="#022266"/>
<path d="M697.2 125.5C672.5 135.5 632 141.1 617.8 174.3C613 185.5 611.2 195.4 610.9 203.5C604 218.8 597.4 231.3 591 241.5C570.4 274.2 552.7 282.7 538.9 283.1C510.8 283.9 500.9 250.7 430.9 191.1C383.3 150.5 355.6 127.6 312.9 121.1C256.3 112.5 212.1 138.9 205.7 142.9C193.4 150.5 158.2 172.1 144.9 213.1C118.6 294.3 199.6 369.7 208.7 377.9C247.6 413.1 290.2 423.3 313.7 428.9C328.9 432.5 382.5 444 448.9 427.5C487.1 418 559.9 399.9 602.9 331.1C625.4 295.1 632 257.6 632.5 227.1C663.4 225.9 719.6 213.4 697.2 125.5Z" fill="#FCB036"/>
<g opacity="0.15">
<g opacity="0.15">
<g opacity="0.15">
<path opacity="0.15" d="M697.2 125.5C693.9 126.9 690.2 128.1 686.4 129.4C704.2 210.4 650.4 222.6 620.4 223.8C620.1 254.3 613.7 291.8 591.5 327.9C549 397 476.2 415.5 438.1 425.3C394.8 436.3 356.9 435.4 331.6 432.5C356.1 436.5 398.9 439.9 448.9 427.5C487.1 418 559.9 399.9 602.9 331.1C625.4 295.1 632 257.6 632.5 227.1C663.4 225.9 719.6 213.4 697.2 125.5Z" fill="#515151"/>
</g>
</g>
</g>
<path opacity="0.2" d="M174.9 246.2C180.975 246.2 185.9 240.559 185.9 233.6C185.9 226.641 180.975 221 174.9 221C168.825 221 163.9 226.641 163.9 233.6C163.9 240.559 168.825 246.2 174.9 246.2Z" fill="#515151"/>
<path opacity="0.2" d="M252.1 233.7C258.286 233.7 263.3 227.925 263.3 220.8C263.3 213.676 258.286 207.9 252.1 207.9C245.914 207.9 240.9 213.676 240.9 220.8C240.9 227.925 245.914 233.7 252.1 233.7Z" fill="#515151"/>
<g opacity="0.16">
<g opacity="0.16">
<g opacity="0.16">
<path opacity="0.16" d="M192.2 162.3C197.6 159 242.7 133.4 299.4 140.5C350.1 146.9 383.9 176.2 416.7 204.7C479.6 259.3 511.9 299.2 540.9 293.4C554.5 290.7 563.2 283.6 577.5 261C578.2 259.9 578.9 258.8 579.5 257.7C563.8 277.2 550 282.8 538.9 283.1C510.8 283.9 500.9 250.7 430.9 191.1C383.3 150.5 355.6 127.6 312.9 121.1C256.3 112.5 212.1 138.9 205.7 142.9C195.3 149.3 168.8 165.6 152.7 195C167.5 177.6 184.4 167.2 192.2 162.3Z" fill="#515151"/>
</g>
</g>
</g>
<path d="M448.9 427.4C478.2 420.1 527.8 407.8 568.8 371.4C488.2 405.8 435.6 399.7 400.9 385C318.6 350 296.1 248.3 226.9 251C208.5 251.7 184.1 259.4 172.9 279C159.3 302.9 172.3 331.5 174.4 336C181.1 347 192.1 362.5 208.7 377.8C246.5 412.6 288 422.7 313.7 428.8C328.9 432.5 382.5 443.9 448.9 427.4Z" fill="#FFEBA6"/>
<path opacity="0.12" d="M223.5 251C223.5 251 270.5 363 400 390" stroke="#022266" stroke-width="6" stroke-miterlimit="10" stroke-linecap="round" stroke-linejoin="round"/>
<path opacity="0.08" d="M457.1 417.6C390.7 434.1 337.1 422.7 321.9 419C296.2 412.8 254.7 402.8 216.9 368C200.3 352.7 189.3 337.2 182.6 326.2C180.5 321.7 167.5 293.1 181.1 269.2C181.3 268.8 181.6 268.4 181.9 267.9C178.4 271.1 175.4 274.8 173 279C159.4 302.9 172.4 331.5 174.5 336C181.2 347 192.2 362.5 208.8 377.8C246.6 412.6 288.1 422.7 313.8 428.8C329 432.4 382.6 443.9 449 427.4C478.3 420.1 527.9 407.8 568.9 371.4C565.9 372.7 562.9 373.9 559.9 375.1C522.8 401.2 482.3 411.3 457.1 417.6Z" fill="#515151"/>
<path opacity="0.12" d="M174.9 280.8C174.9 280.8 194 354.2 274 395.5C333 426 427.3 442.2 544.9 387" stroke="#022266" stroke-width="6" stroke-miterlimit="10" stroke-linecap="round" stroke-linejoin="round"/>
<path opacity="0.12" d="M190.1 261.7C190.1 261.7 255.5 464 528.4 388.5" stroke="#022266" stroke-width="6" stroke-miterlimit="10" stroke-linecap="round" stroke-linejoin="round"/>
<path d="M448.9 427.4C478.2 420.1 527.8 407.8 568.8 371.4C488.2 405.8 435.6 399.7 400.9 385C318.6 350 296.1 248.3 226.9 251C208.5 251.7 184.1 259.4 172.9 279C159.3 302.9 172.3 331.5 174.4 336C181.1 347 192.1 362.5 208.7 377.8C246.5 412.6 288 422.7 313.7 428.8C328.9 432.5 382.5 443.9 448.9 427.4Z" stroke="#022266" stroke-width="6" stroke-miterlimit="10" stroke-linecap="round" stroke-linejoin="round"/>
<path d="M171.8 244.6C176.826 244.6 180.9 239.317 180.9 232.8C180.9 226.283 176.826 221 171.8 221C166.774 221 162.7 226.283 162.7 232.8C162.7 239.317 166.774 244.6 171.8 244.6Z" fill="#022266"/>
<path d="M249.4 242.5C251.112 242.5 252.5 240.664 252.5 238.4C252.5 236.135 251.112 234.3 249.4 234.3C247.688 234.3 246.3 236.135 246.3 238.4C246.3 240.664 247.688 242.5 249.4 242.5Z" fill="white"/>
<path d="M248.6 231.6C253.626 231.6 257.7 226.317 257.7 219.8C257.7 213.283 253.626 208 248.6 208C243.574 208 239.5 213.283 239.5 219.8C239.5 226.317 243.574 231.6 248.6 231.6Z" fill="#022266"/>
<path d="M247.4 219.8C249.223 219.8 250.7 217.651 250.7 215C250.7 212.349 249.223 210.2 247.4 210.2C245.577 210.2 244.1 212.349 244.1 215C244.1 217.651 245.577 219.8 247.4 219.8Z" fill="white"/>
<path d="M249 228.1C249.884 228.1 250.6 227.025 250.6 225.7C250.6 224.374 249.884 223.3 249 223.3C248.116 223.3 247.4 224.374 247.4 225.7C247.4 227.025 248.116 228.1 249 228.1Z" fill="white"/>
<path d="M252.5 251C253.384 251 254.1 249.926 254.1 248.6C254.1 247.275 253.384 246.2 252.5 246.2C251.616 246.2 250.9 247.275 250.9 248.6C250.9 249.926 251.616 251 252.5 251Z" fill="white"/>
<path d="M697.2 125.5C672.5 135.5 632 141.1 617.8 174.3C613 185.5 611.2 195.4 610.9 203.5C604 218.8 597.4 231.3 591 241.5C570.4 274.2 552.7 282.7 538.9 283.1C510.8 283.9 500.9 250.7 430.9 191.1C383.3 150.5 355.6 127.6 312.9 121.1C256.3 112.5 212.1 138.9 205.7 142.9C193.4 150.5 158.2 172.1 144.9 213.1C118.6 294.3 199.6 369.7 208.7 377.9C247.6 413.1 290.2 423.3 313.7 428.9C328.9 432.5 382.5 444 448.9 427.5C487.1 418 559.9 399.9 602.9 331.1C625.4 295.1 632 257.6 632.5 227.1C663.4 225.9 719.6 213.4 697.2 125.5Z" stroke="#022266" stroke-width="6" stroke-miterlimit="10" stroke-linecap="round" stroke-linejoin="round"/>
<path d="M420.9 335C420.9 335 477.2 399.9 434.9 477C408.9 503 386.1 421 386.1 395C386.1 369 394.9 354.3 394.9 354.3" fill="#FCB036"/>
<path opacity="0.2" d="M420.9 335L419.6 335.9C433.5 359.7 452.7 407.9 422.9 462.3C416.8 468.4 410.9 468.6 405.4 464.9C413.7 479.8 424.1 487.9 434.9 477C477.2 399.9 420.9 335 420.9 335Z" fill="#515151"/>
<path d="M420.9 335C420.9 335 477.2 399.9 434.9 477C408.9 503 386.1 421 386.1 395C386.1 369 394.9 354.3 394.9 354.3" stroke="#022266" stroke-width="6" stroke-miterlimit="10" stroke-linecap="round" stroke-linejoin="round"/>
<path opacity="0.28" d="M505.7 16C505.7 16 464.7 7.99998 464.7 50C464.7 92 530.7 100 548.7 82C566.7 64 598.4 33.1 580.7 15.4C563 -2.30002 505.7 16 505.7 16Z" fill="#333379"/>
<path opacity="0.28" d="M206.5 81.4C204.2 81.1 191.5 79.6 186.6 86.5C180.5 95 189.9 111.3 201 119C208.5 124.2 224.1 130.5 233.1 122.2C241.5 114.5 239.6 98.1 231 89C221.8 79.3 207.9 81.2 206.5 81.4Z" fill="#333379"/>
</svg>
